<?xml version="1.0" encoding="UTF-8"?>
<svg id="Layer_1" xmlns="http://www.w3.org/2000/svg" version="1.1" viewBox="0 0 850 850">
  <!-- Generator: Adobe Illustrator 29.6.1, SVG Export Plug-In . SVG Version: 2.1.1 Build 9)  -->
  <defs>
    <style>
      .st0 {
        fill: #f8c735;
      }
    </style>
  </defs>
  <path class="st0" d="M641.4,208.6c-57.8-57.8-134.6-89.6-216.4-89.6s-158.6,31.8-216.4,89.6c-57.8,57.8-89.6,134.6-89.6,216.4s31.8,158.6,89.6,216.4c57.8,57.8,134.6,89.6,216.4,89.6s158.6-31.8,216.4-89.6,89.6-134.6,89.6-216.4-31.8-158.6-89.6-216.4ZM255.7,603.1h0c.3-.1.5-.3.8-.5,4-2.8,12.4-7.4,23.6-7.5.1,0,.2,0,.3,0,11,0,19.2,4.4,23.1,7.1.2.2.5.3.7.4l10.5,10.5-86.9,29.9c-2.1-1.9-4.2-3.9-6.2-5.8l34.2-34.2ZM594.3,246.9h0c-.3.2-.5.3-.8.5-4,2.8-12.4,7.4-23.6,7.5-11.1.1-19.5-4.4-23.4-7.1-.2-.2-.5-.3-.7-.4l-10.5-10.5,86.9-29.9c2.1,1.9,4.2,3.9,6.2,5.8l-34.2,34.2ZM594.2,537.3c-.2.1-.5.2-.7.4-3.9,2.7-12.1,7.1-23.1,7.1-.1,0-.2,0-.3,0-11.2,0-19.6-4.7-23.6-7.5h0c-.3-.2-.5-.3-.8-.5h0s-50.6-50.6-50.6-50.6c1.6-1.8,3.1-3.6,4.5-5.6,50,44.2,74.4,49.4,101.6,49.7l-7,7ZM554.8,554.4c4.4,1.3,9.5,2.3,15.1,2.3,5.8,0,10.9-.9,15.4-2.2-1.3,4.5-2.2,9.6-2.2,15.4,0,5.6,1,10.7,2.3,15.1-4.4-1.3-9.5-2.3-15.1-2.3-.1,0-.3,0-.4,0-5.6,0-10.6.9-15,2.2,1.3-4.5,2.2-9.6,2.2-15.4,0-5.6-1-10.7-2.3-15.1ZM537.6,546.1c2.8,4,7.4,12.4,7.5,23.6,0,11.1-4.4,19.5-7.1,23.4-.2.2-.3.5-.4.7h0s-6.9,6.9-6.9,6.9c-.3-27.2-5.4-51.5-49.6-101.5,1.9-1.4,3.8-3,5.5-4.5l50.6,50.6h0c.1.3.3.5.5.8ZM465.2,624c-.2,0-.5-.2-.8-.2-4.7-.9-13.8-3.6-21.6-11.5-7.8-8-10.5-17.2-11.4-22,0-.3-.1-.6-.2-.9h0v-71.6c2.4-.2,4.8-.4,7.1-.7,4.1,66.7,17.7,87.5,36.7,107h-9.9ZM375.4,624c19-19.4,32.6-40.3,36.7-106.9,2.3.3,4.7.6,7.1.7v71.6h0c0,.3-.2.6-.2.9-.9,4.8-3.6,14-11.4,22-7.8,7.9-16.9,10.6-21.6,11.5-.3,0-.5.1-.8.2h0s-9.8,0-9.8,0ZM416.2,620.7c4-4,6.9-8.3,9.1-12.4,2.2,4.1,5.1,8.3,9.1,12.4,4,4.1,8.3,7.1,12.4,9.3-4.1,2.2-8.4,5.2-12.4,9.3-4,4-6.9,8.3-9.1,12.4-2.2-4.1-5.1-8.3-9.1-12.4-4-4.1-8.3-7.1-12.4-9.3,4.1-2.2,8.4-5.2,12.4-9.3ZM425,506c-14.7,0-28.6-4-40.5-10.9h0c-17.9-10.4-24-33.3-13.7-51.2,9.8-17,30.9-23.4,48.3-15.2,1.9,25.5,23.3,45.7,49.3,45.7s18.1-2.6,25.6-7.1c-14.3,23.2-39.9,38.7-69,38.7ZM319.7,601.1l-7-7c-.1-.2-.2-.5-.4-.7-2.7-4-7.2-12.3-7.1-23.4,0-11.2,4.7-19.6,7.5-23.6h0c.2-.3.3-.5.4-.8h0s50.6-50.6,50.6-50.6c1.8,1.6,3.6,3.1,5.6,4.5-44.2,50-49.4,74.4-49.7,101.6ZM255.9,312.7c.2-.1.5-.2.7-.4,4-2.7,12.3-7.2,23.4-7.1,11.2,0,19.6,4.7,23.6,7.5.3.2.5.3.8.5h0s50.6,50.6,50.6,50.6c-1.6,1.8-3.1,3.6-4.5,5.6-50-44.2-74.4-49.4-101.6-49.7l7-7ZM295.2,295.6c-4.4-1.3-9.5-2.3-15.1-2.3-.1,0-.3,0-.4,0-5.6,0-10.6.9-15,2.2,1.3-4.5,2.2-9.6,2.2-15.4,0-5.6-1-10.7-2.3-15.1,4.4,1.3,9.5,2.3,15.1,2.3,5.7,0,10.9-.9,15.4-2.2-1.3,4.5-2.2,9.6-2.2,15.4,0,5.6,1,10.7,2.3,15.1ZM310.4,302.8s0,0,0,0h0s0,0,0,0ZM312.4,303.9c-2.8-4-7.4-12.4-7.5-23.6,0-11.1,4.4-19.5,7.1-23.4.2-.2.3-.5.4-.7h0s6.9-6.9,6.9-6.9c.3,27.2,5.4,51.5,49.6,101.5-1.9,1.4-3.8,3-5.5,4.5l-50.6-50.6h0c-.1-.3-.3-.5-.5-.8ZM384.8,226c.3,0,.5.2.8.2,4.7.9,13.8,3.6,21.6,11.5,7.8,8,10.5,17.2,11.4,22,0,.3.1.6.2.9h0v71.6c-2.4.2-4.8.4-7.1.7-4.1-66.7-17.7-87.5-36.7-107h9.9ZM474.6,226c-19,19.4-32.6,40.3-36.7,106.9-2.3-.3-4.7-.6-7.1-.7v-71.6h0c0-.3.2-.6.2-.9.9-4.8,3.6-14,11.4-22,7.8-7.9,16.9-10.6,21.6-11.5.3,0,.5-.1.8-.2h0s9.8,0,9.8,0ZM530.3,248.9l7,7c.1.2.2.5.4.7,2.7,4,7.2,12.3,7.1,23.4,0,11.2-4.7,19.6-7.5,23.6-.2.3-.3.5-.5.8h0s-50.6,50.6-50.6,50.6c-1.8-1.6-3.6-3.1-5.6-4.5,44.2-50,49.4-74.4,49.7-101.6ZM506,425h0c0,20.7-16.8,37.5-37.5,37.5s-35.7-15.1-37.3-34.3c21.2-14.4,28-43,15-65.6-4.7-8.1-11.3-14.4-19-18.6,43.7,1.1,78.9,37,78.9,80.9ZM630,403.3c2.2,4.1,5.2,8.4,9.3,12.4,4,4,8.3,6.9,12.4,9.1-4.1,2.2-8.3,5.1-12.4,9.1-4.1,4-7.1,8.3-9.3,12.4-2.2-4.1-5.2-8.4-9.3-12.4-4-4-8.3-6.9-12.4-9.1,4.1-2.2,8.3-5.1,12.4-9.1,4.1-4,7.1-8.3,9.3-12.4ZM624,384.8c0,.2-.2.5-.2.8-.9,4.7-3.6,13.8-11.5,21.6-8,7.8-17.2,10.5-22,11.4-.3,0-.6.1-.9.2h0s-71.6,0-71.6,0c-.2-2.4-.4-4.8-.7-7.1,66.7-4.1,87.5-17.7,107-36.7v9.9ZM433.8,229.3c-4,4-6.9,8.3-9.1,12.4-2.2-4.1-5.1-8.3-9.1-12.4-4-4.1-8.3-7.1-12.4-9.3,4.1-2.2,8.4-5.2,12.4-9.3,4-4,6.9-8.3,9.1-12.4,2.2,4.1,5.1,8.3,9.1,12.4,4,4.1,8.3,7.1,12.4,9.3-4.1,2.2-8.4,5.2-12.4,9.3ZM384.5,354.9h0c17.9-10.3,40.8-4.1,51.2,13.7,9.8,17,4.8,38.4-11,49.4-23.1-11.1-51.3-2.7-64.3,19.8-4.7,8.1-6.8,17-6.6,25.7-6.3-11.5-9.8-24.7-9.8-38.7,0-29.9,16.3-56.1,40.5-70.1ZM517.8,430.8h71.6c.3,0,.6.2.9.2,4.8.9,14,3.6,22,11.4,7.9,7.8,10.6,16.9,11.5,21.6,0,.3.1.5.2.8h0v9.8c-19.4-19-40.3-32.6-106.9-36.7.3-2.3.6-4.7.7-7.1ZM636,464.8c0-.3.2-.5.2-.8.9-4.7,3.6-13.8,11.5-21.6,8-7.8,17.2-10.5,22-11.4.3,0,.6-.1.9-.2h0s48.3,0,48.3,0c0,2.9-.1,5.7-.3,8.5l-82.7,40.3v-14.8h0ZM670.6,418.8h0c-.3,0-.6-.2-.9-.2-4.8-.9-14-3.6-22-11.4-7.9-7.8-10.6-16.9-11.5-21.6,0-.3-.1-.5-.2-.8v-14.9l82.6,40.3c.1,2.8.2,5.7.3,8.5h-48.3ZM632.8,355c-2.5-1.2-5.4-.7-7.3,1.3l-2.1,2.1c-22.5,23.1-36.3,37.2-108.9,41.4-2.1-7.3-5-14.2-8.6-20.7,54.3-48.3,74-48.1,106.2-47.7h3s0,0,0,0c2.7,0,5.1-1.7,6-4.3l30.7-89.2c37.4,45.2,60.2,100,65.8,158.4l-84.8-41.3ZM600.8,319.3c-27.2.3-51.5,5.4-101.5,49.6-1.4-1.9-3-3.8-4.5-5.5l50.6-50.6h0c.3-.1.5-.3.8-.5,4-2.8,12.4-7.4,23.6-7.5,11.2,0,19.5,4.4,23.4,7.1.2.2.5.3.7.4h0s6.9,7,6.9,7ZM547.2,310.4h0s0,0,0,0c0,0,0,0,0,0ZM554.6,264.7c4.5,1.3,9.6,2.2,15.4,2.2,5.6,0,10.7-1,15.1-2.3-1.3,4.4-2.3,9.5-2.3,15.1,0,5.8.9,10.9,2.2,15.4-4.5-1.3-9.6-2.2-15.4-2.2-5.6,0-10.7,1-15.1,2.3,1.3-4.4,2.3-9.5,2.3-15.1,0-5.7-.9-10.9-2.2-15.4ZM522.5,228.6c-2.6.9-4.3,3.3-4.3,6.1v2.9c.4,32.2.7,51.9-47.8,106.3-6.5-3.6-13.4-6.5-20.7-8.5,4.2-72.6,18.3-86.3,41.4-108.8l2.1-2c2-1.9,2.5-4.8,1.3-7.3l-41.4-84.8c58.5,5.5,113.3,28.2,158.6,65.5l-89.2,30.7ZM479.6,214h-14.8c-.3,0-.5-.2-.8-.2-4.7-.9-13.8-3.6-21.6-11.5-7.8-8-10.5-17.2-11.4-22,0-.3-.1-.6-.2-.9h0v-48.3c2.9,0,5.7.1,8.5.3l40.3,82.7ZM418.8,179.4c0,.3-.2.6-.2.9-.9,4.8-3.6,14-11.4,22-7.8,7.9-16.9,10.6-21.6,11.5-.3,0-.5.1-.8.2h-14.9l40.3-82.6c2.8-.1,5.7-.2,8.5-.3v48.3h0ZM355,217.2c-1.2,2.5-.7,5.4,1.3,7.3l2.1,2.1c23.1,22.5,37.2,36.3,41.4,108.9-7.3,2.1-14.2,5-20.7,8.6-48.3-54.3-48.1-74-47.7-106.2v-3c0-2.7-1.7-5.2-4.2-6.1l-89.2-30.7c45.2-37.4,100-60.2,158.4-65.8l-41.3,84.8ZM314.4,237.2l-10.5,10.5h0c-.2.1-.5.3-.7.4-4,2.7-12.3,7.2-23.4,7.1-11.2,0-19.6-4.7-23.6-7.5-.3-.2-.5-.3-.8-.5h0s-34.2-34.2-34.2-34.2c2.1-2,4.1-3.9,6.2-5.8l86.9,29.9ZM246.9,255.7h0c.1.3.3.5.5.8,2.8,4,7.4,12.4,7.5,23.6,0,11.1-4.4,19.5-7.1,23.4-.2.2-.3.5-.4.7l-10.5,10.5-29.9-86.9c1.9-2.1,3.9-4.2,5.8-6.2l34.2,34.2ZM228.6,327.5c.9,2.6,3.3,4.3,6,4.3s0,0,0,0h2.9c32.2-.4,51.9-.7,106.3,47.8-3.6,6.5-6.5,13.4-8.5,20.7-72.6-4.2-86.3-18.3-108.8-41.4l-2.1-2.1c-1.9-2-4.8-2.5-7.3-1.3l-84.8,41.4c5.5-58.5,28.2-113.3,65.5-158.6l30.7,89.2ZM332.2,419.2h-71.6c-.3,0-.6-.2-.9-.2-4.8-.9-14-3.6-22-11.4-7.9-7.8-10.6-16.9-11.5-21.6,0-.3-.1-.5-.2-.8h0v-9.8c19.4,19,40.3,32.6,106.9,36.7-.3,2.3-.6,4.7-.7,7.1ZM220,446.7c-2.2-4.1-5.2-8.4-9.3-12.4-4-4-8.3-6.9-12.4-9.1,4.1-2.2,8.3-5.1,12.4-9.1,4.1-4,7.1-8.3,9.3-12.4,2.2,4.1,5.2,8.4,9.3,12.4,4,4,8.3,6.9,12.4,9.1-4.1,2.2-8.3,5.1-12.4,9.1-4.1,4-7.1,8.3-9.3,12.4ZM214,385.2c0,.3-.2.5-.2.8-.9,4.7-3.6,13.8-11.5,21.6-8,7.8-17.2,10.5-22,11.4-.3,0-.6.1-.9.2h0s-48.3,0-48.3,0c0-2.9.1-5.7.3-8.5l82.7-40.3v14.8h0ZM179.4,431.2h0c.3,0,.6.2.9.2,4.8.9,14,3.6,22,11.4,7.9,7.8,10.6,16.9,11.5,21.6,0,.3.1.5.2.8v14.9l-82.6-40.3c-.1-2.8-.2-5.7-.3-8.5h48.3ZM226,465.2c0-.2.2-.5.2-.8.9-4.7,3.6-13.8,11.5-21.6,8-7.8,17.2-10.5,22-11.4.3,0,.6-.1.9-.2h0s71.6,0,71.6,0c.2,2.4.4,4.8.7,7.1-66.7,4.1-87.5,17.7-107,36.7v-9.9ZM217.2,495c.9.4,1.8.6,2.8.6,1.7,0,3.3-.7,4.5-1.9l2.1-2.1c22.5-23.1,36.3-37.2,108.9-41.4,2.1,7.3,5,14.2,8.6,20.7-54.3,48.3-74,48.1-106.2,47.7h-3s0,0,0,0c-2.7,0-5.1,1.7-6,4.3l-30.7,89.2c-37.4-45.2-60.2-100-65.8-158.4l84.8,41.3ZM249.2,530.7c27.2-.3,51.5-5.4,101.5-49.6,1.4,1.9,3,3.8,4.5,5.5l-50.6,50.6h0c-.3.2-.5.3-.8.5-4,2.8-12.4,7.4-23.6,7.5-.1,0-.2,0-.3,0-11,0-19.2-4.4-23.1-7.1-.2-.2-.5-.3-.7-.4h0s-6.9-7-6.9-7ZM295.4,585.3c-4.5-1.3-9.6-2.2-15.4-2.2-5.6,0-10.7,1-15.1,2.3,1.3-4.4,2.3-9.5,2.3-15.1,0-5.8-.9-10.9-2.2-15.4,4.5,1.3,9.6,2.2,15.4,2.2,5.6,0,10.7-1,15.1-2.3-1.3,4.4-2.3,9.5-2.3,15.1,0,5.8.9,10.9,2.2,15.4ZM327.5,621.4c2.6-.9,4.3-3.3,4.3-6.1v-2.9c-.4-32.2-.7-51.9,47.8-106.3,6.5,3.6,13.4,6.5,20.7,8.5-4.2,72.6-18.3,86.3-41.4,108.8l-2.1,2.1c-2,1.9-2.5,4.9-1.3,7.3l41.4,84.8c-58.5-5.5-113.3-28.2-158.6-65.5l89.2-30.7ZM370.4,636h14.8c.3,0,.5.2.8.2,4.7.9,13.8,3.6,21.6,11.5,7.8,8,10.5,17.2,11.4,22,0,.3.1.6.2.9h0v48.3c-2.9,0-5.7-.1-8.5-.3l-40.3-82.7ZM431.2,670.6c0-.3.2-.6.2-.9.9-4.8,3.6-14,11.4-22,7.8-7.9,16.9-10.6,21.6-11.5.3,0,.5-.1.7-.2h14.9l-40.3,82.6c-2.8.1-5.7.2-8.5.3v-48.3h0ZM495,632.8c1.2-2.5.7-5.4-1.3-7.3l-2.1-2.1c-23.1-22.5-37.2-36.3-41.4-108.9,7.3-2.1,14.2-5,20.7-8.6,48.3,54.3,48.1,74,47.7,106.2v3c0,2.7,1.7,5.1,4.2,6l89.2,30.7c-45.2,37.4-100,60.2-158.4,65.8l41.3-84.8ZM535.6,612.8l10.5-10.5h0c.2-.1.5-.3.7-.4,4-2.7,12.3-7.2,23.4-7.1,11.2,0,19.6,4.7,23.6,7.5.3.2.5.3.8.5h0s34.2,34.2,34.2,34.2c-2.1,2-4.1,3.9-6.2,5.8l-86.9-29.9ZM603.1,594.3h0c-.1-.3-.3-.5-.5-.8-2.8-4-7.4-12.4-7.5-23.6,0-11.2,4.4-19.5,7.1-23.4.2-.2.3-.5.4-.7l10.5-10.5,29.9,86.9c-1.9,2.1-3.9,4.2-5.8,6.2l-34.2-34.2ZM621.4,522.5c-.9-2.5-3.3-4.3-6-4.3h-3c-32.2.4-51.9.7-106.3-47.8,3.6-6.5,6.5-13.4,8.5-20.7,72.6,4.2,86.3,18.3,108.8,41.4l2,2.1c1.2,1.3,2.9,1.9,4.5,1.9s1.9-.2,2.8-.6l84.8-41.4c-5.5,58.5-28.2,113.3-65.5,158.6l-30.7-89.2ZM642.7,227.5l-29.9,86.9-10.5-10.5h0c-.1-.2-.2-.5-.4-.7-2.7-4-7.2-12.3-7.1-23.4,0-11.2,4.7-19.6,7.5-23.6.2-.3.3-.5.5-.8h0s34.2-34.1,34.2-34.1c2,2.1,3.9,4.1,5.8,6.2ZM207.3,622.5l29.9-86.9,10.5,10.5h0c.1.2.2.5.4.7,2.7,4,7.2,12.3,7.1,23.4,0,11.2-4.7,19.6-7.5,23.6-.2.3-.3.5-.5.8h0s-34.2,34.1-34.2,34.1c-2-2.1-3.9-4.1-5.8-6.2Z"/>
  <path class="st0" d="M831,424.9s0,0,0,0c0-54.8-10.8-107.9-31.9-157.9-20.4-48.3-49.7-91.8-87-129,0,0,0,0,0,0,0,0,0,0,0,0,0,0,0,0,0,0-37.2-37.2-80.6-66.4-128.9-86.9-50.1-21.2-103.2-31.9-158-31.9s0,0,0,0,0,0,0,0c0,0,0,0,0,0-54.8,0-107.9,10.8-157.9,31.9-48.3,20.4-91.8,49.7-129,87,0,0,0,0,0,0,0,0,0,0,0,0,0,0,0,0,0,0-37.2,37.3-66.5,80.6-86.9,128.9-21.2,50.1-31.9,103.2-31.9,158s0,0,0,0,0,0,0,0c0,0,0,0,0,0,0,54.8,10.8,107.9,31.9,157.9,20.4,48.3,49.7,91.8,87,129,0,0,0,0,0,0s0,0,0,0c0,0,0,0,0,0,37.3,37.2,80.6,66.4,128.9,86.9,50.1,21.2,103.2,31.9,158,31.9s0,0,0,0,0,0,0,0c0,0,0,0,0,0,54.8,0,107.9-10.8,157.9-31.9,48.3-20.4,91.8-49.7,129-87,0,0,0,0,0,0s0,0,0,0c0,0,0,0,0,0,37.2-37.3,66.4-80.6,86.9-128.9,21.2-50.1,31.9-103.2,31.9-158s0,0,0,0,0,0,0,0ZM819,424.9c0,7-5.7,12.7-12.7,12.7s-12.8-5.7-12.8-12.7,5.7-12.8,12.8-12.8,12.7,5.7,12.7,12.7c0,0,0,0,0,0ZM818.4,403.4c-3.6-2-7.7-3.2-12.2-3.2s-9.5,1.4-13.3,3.9c-2.4-42.4-11.9-83.5-28.4-122.5-15.9-37.5-37.6-71.7-64.7-102,0,0,0,0,0,0,4.6-1,8.8-3.3,12.2-6.7,3.1-3.1,5.2-6.8,6.3-10.8,29.2,32.5,52.6,69.3,69.7,109.6,17.7,42,27.9,86.2,30.4,131.7ZM703.7,703.5s0,0,0,0c-2.4,2.4-5.6,3.7-9,3.7s-6.6-1.3-9-3.7c-2.4-2.4-3.7-5.6-3.7-9s1.3-6.6,3.7-9c2.5-2.5,5.8-3.7,9-3.7s6.5,1.2,9,3.7c2.4,2.4,3.7,5.6,3.7,9s-1.3,6.6-3.7,9ZM425.1,819s0,0,0,0c-7,0-12.7-5.7-12.7-12.7s5.7-12.8,12.8-12.8,12.8,5.7,12.8,12.8-5.7,12.7-12.7,12.7ZM146.5,703.7s0,0,0,0c-2.4-2.4-3.7-5.6-3.7-9s1.3-6.6,3.7-9,5.8-3.7,9-3.7,6.5,1.2,9,3.7c2.4,2.4,3.7,5.6,3.7,9s-1.3,6.6-3.7,9c-2.4,2.4-5.6,3.7-9,3.7s-6.6-1.3-9-3.7ZM70.9,466.7c3.3,1.6,7,2.5,10.9,2.5s10.4-1.8,14.5-4.7c7.2,60.6,30.8,117.4,68.6,165.3-5.1.8-9.8,3.2-13.6,6.9-2.7,2.7-4.7,6-5.9,9.5-41.2-51.9-66.9-113.7-74.5-179.5ZM146.3,146.5s0,0,0,0c2.5-2.5,5.7-3.7,9-3.7s6.5,1.2,9,3.7c5,5,5,13.1,0,18s-5.6,3.7-9,3.7-6.6-1.3-9-3.7-3.7-5.6-3.7-9,1.3-6.6,3.7-9ZM424.9,31s0,0,0,0c7,0,12.7,5.7,12.7,12.7s-5.7,12.8-12.7,12.8-12.8-5.7-12.8-12.8,5.7-12.7,12.7-12.7ZM703.5,146.3s0,0,0,0c2.4,2.4,3.7,5.6,3.7,9s-1.3,6.6-3.7,9h0c-2.4,2.4-5.6,3.7-9,3.7s-6.6-1.3-9-3.7c-2.4-2.4-3.7-5.6-3.7-9s1.3-6.6,3.7-9c2.4-2.4,5.6-3.7,9-3.7s6.6,1.3,9,3.7ZM779.1,383.3c-3.3-1.6-7-2.5-10.9-2.5s-10.4,1.8-14.5,4.7c-7.2-60.6-30.8-117.4-68.6-165.3,5.1-.8,9.8-3.2,13.6-6.9,2.7-2.7,4.7-6,5.9-9.5,41.3,51.9,66.9,113.7,74.5,179.5ZM645.2,672.1c2.4-2.4,5.6-3.7,9-3.7s6.6,1.3,9,3.7c2.4,2.4,3.7,5.6,3.7,9s-1.3,6.6-3.7,9c-2.4,2.4-5.6,3.7-9,3.7s-6.6-1.3-9-3.7c-2.4-2.4-3.7-5.6-3.7-9s1.3-6.6,3.7-9ZM690.5,662.9c-2.4,2.4-5.6,3.7-9,3.7s-6.6-1.3-9-3.7h0c-2.4-2.4-3.7-5.6-3.7-9s1.3-6.6,3.7-9,5.6-3.7,9-3.7,6.6,1.3,9,3.7c2.4,2.4,3.7,5.6,3.7,9s-1.3,6.6-3.7,9ZM663.3,637.1c-.2.2-.4.4-.6.7-3.9,4.4-7.9,8.6-12.1,12.8-55.9,55.9-128.8,88.5-207.1,92.9-.3,0-.5,0-.8,0-5.9.3-11.8.5-17.7.5-79,0-153.6-28.6-212.1-80.8-.2-.2-.4-.4-.6-.6-4.4-3.9-8.6-7.9-12.8-12.1-55.9-55.9-88.5-128.8-92.9-207.1,0-.3,0-.5,0-.8-.3-5.9-.5-11.8-.5-17.7,0-79,28.6-153.6,80.7-212.1.2-.2.4-.4.6-.7,3.9-4.4,7.9-8.6,12.1-12.8,55.9-55.9,128.8-88.5,207.1-92.9.3,0,.5,0,.8,0,5.9-.3,11.8-.5,17.7-.5,85.2,0,165.3,33.2,225.6,93.4,55.9,55.9,88.5,128.8,92.9,207.1,0,.3,0,.5,0,.8.3,5.9.5,11.8.5,17.7,0,79-28.6,153.6-80.7,212.1ZM406,755.5c7,0,12.8,5.7,12.8,12.8s-5.7,12.8-12.8,12.8-12.8-5.7-12.8-12.8,5.7-12.8,12.8-12.8ZM444.5,780.9c-7,0-12.8-5.7-12.8-12.8s5.7-12.8,12.8-12.8,12.8,5.7,12.8,12.8-5.7,12.8-12.8,12.8ZM205.1,672.4c2.4,2.4,3.7,5.6,3.7,9s-1.3,6.6-3.7,9c-2.4,2.4-5.6,3.7-9,3.7s-6.6-1.3-9-3.7c-2.4-2.4-3.7-5.6-3.7-9s1.3-6.6,3.7-9h0c2.4-2.4,5.6-3.7,9-3.7s5.8,1,8.1,2.9c0,0,0,0,0,0,.3.3.6.5.9.8ZM177.9,645.2c2.4,2.4,3.7,5.6,3.7,9s-1.3,6.6-3.7,9c-2.4,2.4-5.6,3.7-9,3.7s-6.6-1.3-9-3.7c-2.4-2.4-3.7-5.6-3.7-9s1.3-6.6,3.7-9,5.8-3.7,9-3.7,6.5,1.2,9,3.7ZM81.8,418.8c-7,0-12.8-5.7-12.8-12.8s5.7-12.8,12.8-12.8,12.8,5.7,12.8,12.8-5.7,12.8-12.8,12.8ZM81.8,431.8c7,0,12.8,5.7,12.8,12.8s-5.7,12.8-12.8,12.8-12.8-5.7-12.8-12.8,5.7-12.8,12.8-12.8ZM177.6,205.1c-2.4,2.4-5.6,3.7-9,3.7s-6.6-1.3-9-3.7-3.7-5.6-3.7-9,1.3-6.6,3.7-9,5.6-3.7,9-3.7,6.6,1.3,9,3.7,3.7,5.6,3.7,9-1,5.8-2.9,8.1c0,0,0,0,0,0-.3.3-.5.6-.8.9ZM204.8,177.9c-2.4,2.4-5.6,3.7-9,3.7s-6.6-1.3-9-3.7c-5-5-5-13.1,0-18s5.6-3.7,9-3.7,6.6,1.3,9,3.7c5,5,5,13.1,0,18ZM444,94.5c-7,0-12.8-5.7-12.8-12.8s5.7-12.8,12.8-12.8,12.8,5.7,12.8,12.8-5.7,12.8-12.8,12.8ZM405.5,69.1c7,0,12.8,5.7,12.8,12.8s-5.7,12.8-12.8,12.8-12.8-5.7-12.8-12.8,5.7-12.8,12.8-12.8ZM672.1,204.8c-2.4-2.4-3.7-5.6-3.7-9s1.3-6.6,3.7-9c2.4-2.4,5.6-3.7,9-3.7s6.6,1.3,9,3.7c2.4,2.4,3.7,5.6,3.7,9s-1.3,6.6-3.7,9c-5,5-13.1,5-18,0ZM662.9,159.5c2.4,2.4,3.7,5.6,3.7,9s-1.3,6.6-3.7,9c-5,5-13.1,5-18,0-2.4-2.4-3.7-5.6-3.7-9s1.3-6.6,3.7-9c2.5-2.5,5.8-3.7,9-3.7s6.5,1.2,9,3.7ZM768.2,418.2c-7,0-12.8-5.7-12.8-12.8s5.7-12.8,12.8-12.8,12.8,5.7,12.8,12.8-5.7,12.8-12.8,12.8ZM768.2,431.2c7,0,12.8,5.7,12.8,12.8s-5.7,12.8-12.8,12.8-12.8-5.7-12.8-12.8,5.7-12.8,12.8-12.8ZM636.4,151c-3.7,3.7-6.1,8.5-6.9,13.6-47.9-37.8-104.8-61.3-165.4-68.4,3-4.1,4.7-9.1,4.7-14.5s-.9-7.6-2.5-10.9c65.9,7.5,127.7,33.1,179.7,74.3-3.5,1.2-6.8,3.1-9.5,5.9ZM385.5,96.3c-60.6,7.2-117.5,30.8-165.3,68.6-.8-5-3.1-9.8-6.9-13.6-2.7-2.7-6-4.7-9.5-5.9,51.9-41.3,113.7-66.9,179.5-74.5-1.6,3.3-2.5,7-2.5,10.9s1.8,10.4,4.7,14.5ZM145.1,204.1c1.2,3.5,3.2,6.8,5.9,9.5s8.5,6.1,13.6,6.9c-37.8,47.9-61.3,104.8-68.4,165.4-4.1-3-9.1-4.7-14.5-4.7s-7.6.9-10.9,2.5c7.5-65.9,33.1-127.7,74.3-179.7ZM213.6,699c3.7-3.7,6.1-8.5,6.9-13.6,47.9,37.8,104.8,61.3,165.4,68.4-3,4.1-4.7,9.1-4.7,14.5s.9,7.6,2.5,10.9c-65.9-7.5-127.7-33.1-179.7-74.3,3.5-1.2,6.8-3.2,9.5-5.9ZM464.5,753.7c60.6-7.2,117.4-30.8,165.3-68.6.8,5.1,3.2,9.8,6.9,13.6,2.7,2.7,6,4.7,9.5,5.9-51.9,41.3-113.7,66.9-179.5,74.5,1.6-3.3,2.5-7,2.5-10.9s-1.8-10.4-4.7-14.5ZM704.9,645.9c-1.2-3.5-3.2-6.8-5.9-9.5-3.7-3.7-8.5-6.1-13.6-6.9,37.8-47.9,61.3-104.8,68.4-165.4,4.1,3,9.1,4.7,14.5,4.7s7.6-.9,10.9-2.5c-7.5,65.9-33.1,127.7-74.3,179.7ZM687.8,131.5c-4.1,1.1-7.8,3.3-10.8,6.3-3.4,3.4-5.7,7.6-6.7,12.2-30.3-27.1-64.4-48.8-101.9-64.6-39.1-16.5-80.3-26-122.7-28.4,2.5-3.8,3.9-8.4,3.9-13.3s-1.2-8.6-3.2-12.2c45.6,2.4,89.9,12.6,131.9,30.4,40.3,17,77,40.4,109.5,69.5ZM271.6,62c42-17.7,86.2-27.9,131.7-30.4-2,3.6-3.2,7.7-3.2,12.2s1.4,9.5,3.9,13.3c-42.4,2.4-83.5,11.9-122.5,28.4-37.5,15.9-71.7,37.6-102,64.7,0,0,0,0,0,0-1-4.5-3.2-8.7-6.7-12.2s-6.8-5.2-10.8-6.3c32.5-29.2,69.3-52.6,109.6-69.7ZM62,271.6c17-40.3,40.4-77,69.5-109.5,1.1,4.1,3.3,7.8,6.3,10.8s7.6,5.7,12.2,6.7c-27.1,30.3-48.8,64.4-64.6,101.9-16.5,39.1-26,80.3-28.4,122.7-3.8-2.5-8.4-3.9-13.3-3.9s-8.6,1.2-12.2,3.2c2.4-45.6,12.6-89.9,30.4-131.9ZM31,425.1c0-7,5.7-12.7,12.7-12.7s12.8,5.7,12.8,12.8-5.7,12.7-12.8,12.7-12.7-5.7-12.7-12.7c0,0,0,0,0,0ZM31.6,446.6c3.6,2,7.7,3.2,12.2,3.2s9.5-1.4,13.3-3.9c2.4,42.4,11.9,83.5,28.4,122.5,15.9,37.5,37.6,71.7,64.7,102,0,0,0,0,0,0-4.6,1-8.8,3.3-12.2,6.7-3.1,3.1-5.2,6.8-6.3,10.8-29.2-32.5-52.6-69.3-69.7-109.6-17.7-42-27.9-86.2-30.4-131.7ZM162.2,718.5c4.1-1.1,7.8-3.3,10.8-6.3,3.4-3.4,5.7-7.6,6.7-12.2,30.3,27.1,64.4,48.8,101.9,64.6,39.1,16.5,80.3,26,122.7,28.4-2.5,3.8-3.9,8.4-3.9,13.3s1.2,8.6,3.2,12.2c-45.6-2.4-89.9-12.6-131.9-30.4-40.3-17-77-40.4-109.5-69.5ZM578.4,788c-42,17.7-86.2,27.9-131.7,30.4,2-3.6,3.2-7.7,3.2-12.2s-1.4-9.5-3.9-13.3c42.4-2.4,83.5-11.9,122.5-28.4,37.5-15.9,71.7-37.6,102-64.7,0,0,0,0,0,0,1,4.6,3.3,8.8,6.7,12.2,3.1,3.1,6.8,5.2,10.8,6.3-32.5,29.2-69.3,52.6-109.6,69.7ZM788,578.4c-17,40.3-40.4,77-69.5,109.5-1.1-4.1-3.3-7.8-6.3-10.8-3.4-3.4-7.6-5.7-12.2-6.7,27.1-30.3,48.8-64.4,64.6-101.9,16.5-39.1,26-80.3,28.4-122.7,3.8,2.5,8.4,3.9,13.3,3.9s8.6-1.2,12.2-3.2c-2.4,45.6-12.6,89.9-30.4,131.9Z"/>
</svg>